<?xml version="1.0" encoding="UTF-8"?>
<!-- Created with Inkscape (http://www.inkscape.org/) -->
<svg width="201.57mm" height="63.85mm" version="1.1" viewBox="0 0 201.57 63.85" xmlns="http://www.w3.org/2000/svg">
 <defs>
  <clipPath id="clipPath23">
   <path d="M 0,841.89 H 595.276 V 0 H 0 Z"/>
  </clipPath>
 </defs>
 <g transform="translate(-4.6814 -120.15)">
  <g transform="matrix(.35278 0 0 -.35278 .55902 310.18)" clip-path="url(#clipPath23)">
   <g transform="translate(194.7 444.79)">
    <path d="m0 0c0-39.138-31.728-70.866-70.866-70.866s-70.866 31.728-70.866 70.866 31.728 70.866 70.866 70.866 70.866-31.728 70.866-70.866" fill="#ef2c46"/>
    <path d="m0 0c0-39.138-31.728-70.866-70.866-70.866s-70.866 31.728-70.866 70.866 31.728 70.866 70.866 70.866 70.866-31.728 70.866-70.866z" fill="none" stroke="#040606" stroke-miterlimit="10" stroke-width="5"/>
   </g>
   <g transform="translate(153.39 379)">
    <path d="m0 0s-19.371-5.102-48.285 18.709c-28.913 23.811-32.267 58.441-32.693 63.118-0.425 4.677-2.214 21.829 6.654 36.026 0 0-13.11-5.934-22.345-27.749-6.894-16.283-8.476-37.492 7.021-61.908 34.28-54.009 89.648-28.196 89.648-28.196" fill="#040606"/>
   </g>
   <g transform="translate(78.236 390.16)">
    <path d="m 0,0 -17.364,22.071 c 0,0 -51.668,-43.571 -43.861,-50.464 C -45.952,-41.88 0,0 0,0" fill="#040606"/>
   </g>
   <g transform="translate(174.04 491.11)">
    <path d="m0 0s7.931-7.22-20.604-37.835c-1.771-1.899 47.079 42.493 40.677 51.855-6.401 9.363-24.16-7.744-24.093-3.862" fill="#040606"/>
   </g>
   <g transform="translate(57.121 420.83)">
    <path d="m0 0s-55.953-54.042-40.11-59.067c28.76-9.122 100.07 24.711 147.71 61.152 46.445 35.525 71.742 71.982 76.637 86.765 18.413 55.595-67.451 7.923-81.354-3.111l9.476-6.394s15.36 9.116 21.138 6.394c4.83-2.275-18.425-39.975-50.11-68.306-63.915-57.148-104-69.465-119.97-75.134-8.609-3.057-1.984 16.724 40.331 49.098z" fill="#fff"/>
    <path d="m0 0s-55.953-54.042-40.11-59.067c28.76-9.122 100.07 24.711 147.71 61.152 46.445 35.525 71.742 71.982 76.637 86.765 18.413 55.595-67.451 7.923-81.354-3.111l9.476-6.394s15.36 9.116 21.138 6.394c4.83-2.275-18.425-39.975-50.11-68.306-63.915-57.148-104-69.465-119.97-75.134-8.609-3.057-1.984 16.724 40.331 49.098z" fill="none" stroke="#040606" stroke-miterlimit="10" stroke-width="5"/>
   </g>
   <g transform="translate(60.804 432.67)">
    <path d="m0 0c20.697 7.403 39.701 19.397 56.357 33.692 0 0 0.086-0.092 0.086-0.092-3.954-3.895-7.988-7.736-12.27-11.3-12.922-10.844-26.951-20.202-42.491-27.009l-1.682 4.709" fill="#040606"/>
   </g>
   <g transform="translate(136.27 375.91)">
    <path d="m0 0c-0.03 2e-3 1.996 3.339 2.026 3.335 5.483-0.598 8.886 0.467 14.982 3.645 8.087 4.216-6.272-6.484-6.272-6.484z" fill="#040606"/>
   </g>
   <g transform="translate(99.333 408.11)">
    <path d="m0 0s-3.118-2.835-9.071 4.157c-9.662 11.35-2.551-10.771-2.551-10.771l14.842 3.709z" fill="#040606"/>
   </g>
   <g transform="translate(192.23 516.86)">
    <path d="M 0,0 C 8.246,4.189 43.869,19.55 40.952,-0.193 37.43,-15.994 16.509,-38.346 5.339,-50.551 15.586,-38.26 36.525,-15.019 39.746,0.013 42.781,17.48 7.582,2.878 0,0" fill="#040606"/>
   </g>
   <g transform="translate(34.02 376.01)">
    <path d="m0 0c3.773-8.314 25.923-0.77 32.575 1.584 11.226 4.037 22.068 9.111 32.75 14.453-12.555-6.403-53.436-28.334-65.414-18.533-0.608 0.615-1.121 1.258-1.355 2.301z" fill="#040606"/>
   </g>
   <path d="m287.95 447.33h-10.507v88.559h10.507z" fill="#040606"/>
   <g transform="translate(351.12 454.84)">
    <path d="m0 0c20.264 0 35.023 16.011 35.023 36.775 0 20.639-14.634 36.774-35.148 36.774-20.137 0-34.897-16.135-34.897-36.774 0-20.514 14.383-36.775 35.022-36.775m46.281 36.775c0-26.517-19.387-46.531-46.281-46.531-26.892 0-46.28 19.888-46.28 46.531 0 26.642 19.263 46.531 46.28 46.531 27.144 0 46.281-20.138 46.281-46.531" fill="#040606"/>
   </g>
   <g transform="translate(465.31 478.85)">
    <path d="m0 0-17.51 43.53h-0.251l-18.387-43.53zm-61.29-31.52 39.026 88.559h9.881l37.651-88.559h-12.258l-9.006 21.764h-44.28l-9.131-21.764z" fill="#040606"/>
   </g>
   <g transform="translate(553.36 478.85)">
    <path d="m0 0-17.512 43.53h-0.25l-18.388-43.53zm-61.292-31.52 39.026 88.559h9.883l37.65-88.559h-12.259l-9.007 21.764h-44.278l-9.131-21.764z" fill="#040606"/>
   </g>
   <g transform="translate(297.88 387.54)">
    <path d="m0 0-15.412 38.308h-0.22l-16.182-38.308zm-53.94-27.74 34.346 77.936h8.696l33.134-77.936h-10.787l-7.926 19.153h-38.969l-8.036-19.153z" fill="#040606"/>
   </g>
   <g transform="translate(328.91 411.32)">
    <path d="m0 0h8.587v-31.263c0-7.814 3.522-13.648 11.778-13.648 10.678 0 15.962 7.704 15.962 19.373v25.538h8.586v-40.069c0-3.191 0.441-8.694 0.441-11.447h-8.145c0 3.632-0.222 5.064-0.222 8.476h-0.219c-2.642-5.723-9.358-9.798-17.284-9.798-12.769 0-19.484 8.147-19.484 20.585z" fill="#040606"/>
   </g>
   <g transform="translate(423.35 403.28)">
    <path d="m0 0-7.155-4.733c-2.202 3.633-5.725 6.165-10.899 6.165-5.724 0-10.127-2.862-10.127-7.156 0-3.412 4.074-5.834 12.88-7.486 12.329-2.311 16.952-7.045 16.952-15.411 0-10.125-8.145-16.181-20.584-16.181-9.578 0-15.523 2.973-20.036 9.578l6.824 5.282c4.294-5.172 8.038-6.933 13.212-6.933 6.494 0 11.337 3.083 11.337 7.923 0 4.735-3.192 6.606-14.53 9.028-10.238 2.201-14.642 6.384-14.642 14.09 0 9.357 8.697 15.191 19.265 15.191 7.926 0 14.31-3.302 17.503-9.357" fill="#040606"/>
   </g>
   <g transform="translate(430.17 404.05)">
    <path d="m0 0v7.265h11.229v14.641h8.586v-14.641h15.191v-7.265h-15.191v-27.52c0-8.255 2.752-10.126 7.706-10.126 2.532 0 5.394 0.55 7.595 1.761l0.331-7.817c-3.083-1.319-6.825-1.871-10.018-1.871-9.907 0-14.2 3.965-14.2 16.732v28.841z" fill="#040606"/>
   </g>
   <g transform="translate(504.58 412.09)">
    <path d="m0 0-0.551-8.695c-1.65 0.439-2.972 0.659-4.623 0.659-9.907 0-15.081-6.825-15.081-18.713v-25.538h-8.587v40.069c0 3.411-0.439 8.366-0.439 11.447h8.145c0-3.191 0.22-5.063 0.22-8.475h0.22c2.753 5.835 9.577 9.797 17.173 9.797 1.322 0 2.313-0.11 3.523-0.551" fill="#040606"/>
   </g>
   <path d="m523.83 359.8h-8.587v51.516h8.587zm1.982 71.662c0-3.633-2.641-6.275-6.274-6.275-3.634 0-6.275 2.642-6.275 6.275 0 3.522 2.861 6.274 6.275 6.274 3.411 0 6.274-2.752 6.274-6.274" fill="#040606"/>
   <g transform="translate(547.16 374.66)">
    <path d="m0 0c0-5.834 4.075-8.916 11.34-8.916 8.916 0 15.19 5.836 15.19 16.842v1.981h-9.467c-10.128 0-17.063-3.193-17.063-9.907m-9.245-0.881c0 11.889 8.915 18.053 31.812 18.053h3.963v1.432c0 7.596-4.732 11.448-12.769 11.448-5.614 0-11.228-1.761-15.303-5.614l-5.393 5.614c5.284 5.284 12.881 7.926 20.476 7.926 14.86 0 21.575-7.155 21.575-21.246v-23.115c0-1.762 0.22-4.954 0.772-8.477h-8.257c-0.439 1.322-0.549 3.303-0.549 7.705h-0.223c-3.852-5.834-9.796-9.027-16.951-9.027-11.23 0-19.153 5.946-19.153 15.301" fill="#040606"/>
   </g>
  </g>
 </g>
</svg>
