<?xml version="1.0" encoding="UTF-8"?>
<!-- Created with Inkscape (http://www.inkscape.org/) -->
<svg width="201.57mm" height="63.85mm" version="1.1" viewBox="0 0 201.57 63.85" xmlns="http://www.w3.org/2000/svg">
 <g transform="translate(-4.0004 -124.57)">
  <g transform="matrix(.35278 0 0 .35278 4.001 124.57)">
   <path d="m183.01 93.895c0 39.136-31.731 70.867-70.867 70.867-39.137 0-70.868-31.731-70.868-70.867 0-39.137 31.731-70.868 70.868-70.868 39.136 0 70.867 31.731 70.867 70.868" fill="#ef2c46"/>
   <g transform="scale(1,-1)">
    <path d="m183.01-93.895c0-39.136-31.731-70.867-70.867-70.867-39.137 0-70.868 31.731-70.868 70.867 0 39.137 31.731 70.868 70.868 70.868 39.136 0 70.867-31.731 70.867-70.868z" fill="none" stroke="#040606" stroke-miterlimit="10" stroke-width="5"/>
   </g>
   <g fill="#040606">
    <path d="m141.71 159.68s-19.371 5.101-48.285-18.711c-28.91-23.813-32.266-58.442-32.692-63.118-0.425-4.675-2.214-21.828 6.653-36.027 0 0-13.11 5.934-22.344 27.75-6.894 16.281-8.477 37.492 7.02 61.906 34.281 54.012 89.648 28.2 89.648 28.2"/>
    <path d="m66.551 148.53-17.363-22.07s-51.668 43.57-43.864 50.465c15.274 13.488 61.227-28.395 61.227-28.395"/>
    <path d="m162.36 47.578s7.93 7.223-20.605 37.836c-1.77 1.898 47.082-42.492 40.68-51.855-6.403-9.364-24.161 7.746-24.094 3.863"/>
   </g>
   <g transform="scale(1,-1)">
    <path d="m45.434-117.86s-55.954-54.043-40.11-59.067c28.762-9.121 100.07 24.711 147.72 61.152 46.445 35.524 71.742 71.981 76.637 86.766 18.414 55.594-67.453 7.922-81.356-3.113l9.477-6.395s15.359 9.117 21.137 6.395c4.832-2.274-18.422-39.973-50.11-68.305-63.914-57.148-104-69.465-119.97-75.133-8.609-3.058-1.984 16.723 40.333 49.098z" fill="#fff" stroke="#040606" stroke-miterlimit="10" stroke-width="5"/>
   </g>
   <g fill="#040606">
    <path d="m49.117 106.02c20.699-7.403 39.703-19.395 56.36-33.692 0 0 0.085 0.094 0.085 0.094-3.957 3.894-7.988 7.734-12.269 11.297-12.922 10.847-26.953 20.203-42.492 27.011 0 0-1.684-4.71-1.684-4.71"/>
    <path d="m124.58 162.78c-0.027 0 1.996-3.339 2.027-3.336 5.485 0.598 8.887-0.464 14.981-3.644 8.09-4.215-6.27 6.484-6.27 6.484z"/>
    <path d="m87.648 130.58s-3.117 2.836-9.07-4.156c-9.664-11.348-2.551 10.773-2.551 10.773l14.84-3.711z"/>
    <path d="m180.54 21.824c8.246-4.191 43.867-19.551 40.949 0.192-3.519 15.8-24.441 38.152-35.609 50.359 10.246-12.293 31.183-35.531 34.406-50.563 3.035-17.468-32.164-2.867-39.746 0.012"/>
    <path d="m22.336 162.68c3.773 8.312 25.922 0.769 32.574-1.582 11.227-4.039 22.067-9.114 32.75-14.453-12.555 6.402-53.437 28.332-65.414 18.531-0.609-0.614-1.121-1.258-1.355-2.301z"/>
    <path d="m265.76 2.793h10.508v88.559h-10.508z"/>
   </g>
   <g fill="#fff" stroke="#fff">
    <path d="m339.43 83.848c20.265 0 35.023-16.012 35.023-36.774 0-20.64-14.633-36.777-35.148-36.777-20.137 0-34.899 16.137-34.899 36.777 0 20.512 14.383 36.774 35.024 36.774m46.281-36.774c0 26.516-19.387 46.531-46.281 46.531-26.891 0-46.282-19.89-46.282-46.531 0-26.644 19.266-46.531 46.282-46.531 27.144 0 46.281 20.137 46.281 46.531"/>
    <path d="m453.62 59.832-17.512-43.531h-0.25l-18.386 43.531zm-61.289 31.52 39.023-88.559h9.883l37.649 88.559h-12.258l-9.004-21.766h-44.281l-9.129 21.766z"/>
    <path d="m541.68 59.832-17.512-43.531h-0.25l-18.387 43.531zm-61.289 31.52 39.023-88.559h9.883l37.652 88.559h-12.257l-9.008-21.766h-44.278l-9.132 21.766z"/>
    <path d="m286.19 151.14-15.414-38.305h-0.218l-16.18 38.305zm-53.941 27.742 34.348-77.938h8.695l33.133 77.938h-10.785l-7.926-19.153h-38.969l-8.035 19.153z"/>
    <path d="m317.22 127.37h8.586v31.262c0 7.812 3.523 13.648 11.777 13.648 10.68 0 15.965-7.703 15.965-19.375v-25.535h8.586v40.067c0 3.191 0.437 8.695 0.437 11.449h-8.144c0-3.633-0.223-5.067-0.223-8.477h-0.219c-2.64 5.723-9.355 9.797-17.281 9.797-12.769 0-19.484-8.145-19.484-20.586z"/>
    <path d="m411.66 135.41-7.156 4.731c-2.203-3.633-5.723-6.164-10.899-6.164-5.722 0-10.129 2.863-10.129 7.156 0 3.414 4.075 5.836 12.883 7.488 12.328 2.309 16.949 7.043 16.949 15.41 0 10.125-8.144 16.18-20.582 16.18-9.578 0-15.523-2.973-20.035-9.578l6.825-5.281c4.292 5.172 8.035 6.933 13.21 6.933 6.493 0 11.336-3.082 11.336-7.922 0-4.738-3.191-6.609-14.527-9.031-10.238-2.199-14.644-6.383-14.644-14.09 0-9.355 8.699-15.191 19.265-15.191 7.926 0 14.309 3.305 17.504 9.359"/>
    <path d="m418.48 134.64v-7.266h11.231v-14.641h8.586v14.641h15.187v7.266h-15.187v27.519c0 8.254 2.75 10.125 7.703 10.125 2.531 0 5.395-0.551 7.598-1.761l0.328 7.816c-3.082 1.32-6.824 1.871-10.016 1.871-9.906 0-14.199-3.965-14.199-16.73v-28.84z"/>
    <path d="m492.89 126.6-0.551 8.695c-1.652-0.438-2.973-0.656-4.625-0.656-9.906 0-15.078 6.824-15.078 18.711v25.539h-8.59v-40.071c0-3.41-0.438-8.367-0.438-11.445h8.145c0 3.191 0.219 5.063 0.219 8.473h0.222c2.75-5.832 9.575-9.797 17.172-9.797 1.321 0 2.313 0.109 3.524 0.551"/>
    <path d="m512.15 178.89h-8.589v-51.516h8.589zm1.981-71.664c0 3.632-2.641 6.277-6.274 6.277-3.636 0-6.277-2.645-6.277-6.277 0-3.52 2.863-6.274 6.277-6.274 3.411 0 6.274 2.754 6.274 6.274"/>
    <path d="m535.48 164.03c0 5.832 4.078 8.914 11.339 8.914 8.918 0 15.192-5.836 15.192-16.839v-1.981h-9.469c-10.125 0-17.062 3.191-17.062 9.906m-9.243 0.879c0-11.886 8.914-18.051 31.809-18.051h3.965v-1.433c0-7.594-4.731-11.449-12.77-11.449-5.613 0-11.226 1.761-15.3 5.617l-5.395-5.617c5.285-5.282 12.879-7.926 20.477-7.926 14.859 0 21.574 7.156 21.574 21.246v23.117c0 1.762 0.218 4.953 0.773 8.477h-8.258c-0.441-1.325-0.55-3.305-0.55-7.707h-0.223c-3.852 5.836-9.797 9.027-16.949 9.027-11.231 0-19.153-5.945-19.153-15.301"/>
   </g>
  </g>
  <g fill="#fff" stroke="#fff">
   <path transform="matrix(.26458 0 0 .26458 4.0004 124.57)" d="m354.56 62.684v-58.826h13.501v117.65h-13.501z"/>
   <path transform="matrix(.26458 0 0 .26458 4.0004 124.57)" d="m444.61 124c-32.522-3.7681-55.117-31.325-53.178-64.856 0.9374-16.212 5.991-28.341 16.371-39.292 8.7595-9.2418 18.805-14.779 31.618-17.427 8.1085-1.676 22.17-1.3386 29.904 0.7176 21.531 5.7241 37.299 22.046 42.921 44.429 1.9656 7.8253 1.9566 22.409-0.0188 30.337-2.9036 11.654-7.3478 19.865-15.149 27.991-10.256 10.682-22.133 16.391-37.866 18.2-6.0271 0.69301-7.867 0.68041-14.602-0.1zm22.46-14.057c18.438-6.3056 29.88-21.069 32.131-41.456 2.7594-25-11.341-47.096-34.137-53.49-3.0579-0.85782-6.3794-1.1461-13.098-1.1369-8.1465 0.01116-9.4889 0.18117-14.144 1.7913-13.506 4.6717-23.519 14.265-28.522 27.328-2.699 7.0474-3.5295 11.668-3.5415 19.702-0.0138 9.3118 1.4314 15.64 5.4952 24.06 2.7632 5.7258 3.9972 7.4612 8.4721 11.915 5.9433 5.9153 12.661 9.8329 20.494 11.951 6.5884 1.7816 20.721 1.432 26.85-0.66402z"/>
   <path transform="matrix(.26458 0 0 .26458 4.0004 124.57)" d="m524.48 119.7c0.42493-0.99573 12.056-27.469 25.846-58.829l25.073-57.018 12.714 0.32686 23.366 54.969c12.851 30.233 24.09 56.641 24.975 58.685l1.6088 3.7164-15.719-0.36087-11.7-28.288-59.837-0.33407-12.054 28.925-15.046 0.018zm80.638-40.139c-2.1284-5.4457-21.299-53.066-22.323-55.45-1.187-2.7646-1.4708-3.0511-2.0309-2.0503-1.033 1.8459-24.331 57.152-24.331 57.758 0 0.30026 11.025 0.54593 24.499 0.54593 19.338 0 24.433-0.16929 24.185-0.80364z"/>
   <path transform="matrix(.26458 0 0 .26458 4.0004 124.57)" d="m641.47 120.73c0.17479-0.45358 11.821-26.935 25.88-58.847l25.562-58.023h12.476l24.511 57.701c13.481 31.736 24.697 58.207 24.925 58.826 0.38023 1.0319-0.22205 1.1251-7.2704 1.1251h-7.685l-11.944-28.944-59.831 0.33406-11.886 28.288-7.5279 0.18179c-5.9176 0.14291-7.4599 5e-3 -7.2101-0.64291zm80.843-41.021c0-0.73173-21.538-54.707-22.8-57.136-0.44416-0.85541-0.97916-1.2465-1.2051-0.88086-0.98847 1.5994-24.214 57.063-24.214 57.824 0 0.68922 4.5534 0.8497 24.109 0.8497 15.988 0 24.109-0.2213 24.109-0.65694z"/>
   <path transform="matrix(.26458 0 0 .26458 4.0004 124.57)" d="m310.21 238.38c3e-3 -0.10077 10.211-23.328 22.686-51.616l22.68-51.433h11.398l21.746 51.111c11.96 28.111 21.753 51.328 21.762 51.593 9e-3 0.2652-2.9715 0.48218-6.6236 0.48218h-6.6401l-2.426-5.9469c-1.3343-3.2708-3.7292-9.0602-5.322-12.865l-2.896-6.9183-52.691 0.3356-10.545 25.073-6.5666 0.18321c-3.6117 0.10077-6.5643 0.10077-6.5615 0zm71.358-37.15c0-1.593-20.155-50.823-20.728-50.632-0.61967 0.20656-21.704 49.429-21.704 50.669 0 0.36501 8.4027 0.60437 21.216 0.60437 13.698 0 21.216-0.22754 21.216-0.64212z"/>
   <path transform="matrix(.26458 0 0 .26458 4.0004 124.57)" d="m439.35 238.36c-7.1063-2.4824-11.228-6.5133-14.202-13.889-1.4224-3.5273-1.469-4.3367-1.6625-28.863l-0.19913-25.234h10.94l0.37932 48.54 1.7773 3.3723c2.9397 5.5778 8.8554 8.3856 16.088 7.6359 8.0038-0.82954 14.274-5.5933 17.281-13.129 1.3997-3.5079 1.4724-4.5854 1.688-25.042l0.22532-21.377h10.837l4e-3 28.77c2e-3 15.824 0.18965 31.157 0.41674 34.074l0.41289 5.304h-10.477v-5.7862c0-6.0681-0.57554-7.0959-2.207-3.9411-1.5358 2.97-7.2026 7.6145-11.165 9.1506-5.614 2.1766-14.565 2.3608-20.137 0.41434z"/>
   <path transform="matrix(.26458 0 0 .26458 4.0004 124.57)" d="m513.52 238.81c-1.8562-0.49982-4.5834-1.5253-6.0605-2.2789-2.9705-1.5154-9.5305-7.422-9.5305-8.5812 0-0.40559 1.7784-2.0993 3.9519-3.7638l3.9519-3.0264 3.1411 2.9382c5.4172 5.0671 12.1 6.9537 19.321 5.4545 8.357-1.7349 12.613-7.9035 9.9131-14.366-1.2467-2.9837-5.6367-5.115-16.015-7.7753-10.357-2.6547-13.475-3.9296-16.844-6.8873-3.3662-2.9556-4.8175-6.3881-4.8348-11.435-0.0195-5.6796 1.04-8.6785 4.3777-12.391 9.7833-10.881 30.714-11.057 40.351-0.33809 1.5576 1.7324 2.832 3.4018 2.832 3.7097s-1.9071 1.8392-4.238 3.4029l-4.238 2.8431-2.3518-2.6111c-3.2817-3.6434-7.0658-5.1902-12.638-5.166-7.5442 0.0327-12.581 3.0925-13.544 8.2286-0.57895 3.0861 1.2536 5.9804 5.0109 7.9139 1.65 0.8491 6.9933 2.5224 11.874 3.7185 10.259 2.5141 16.057 5.1228 18.811 8.4643 6.048 7.3372 4.7966 20.536-2.5221 26.601-2.9661 2.4582-7.8537 4.728-12.108 5.6227-4.642 0.97635-14.503 0.82969-18.612-0.27681z"/>
   <path transform="matrix(.26458 0 0 .26458 4.0004 124.57)" d="m584.69 239.23c-4.961-1.6236-7.8619-4.3124-9.7433-9.031-1.3656-3.4248-1.4367-4.5912-1.6579-27.205l-0.2311-23.627h-14.689v-9.0007h14.787v-19.93h10.929v19.93h19.93v9.0007h-20.007l0.19915 22.02c0.17744 19.621 0.32318 22.247 1.3376 24.103 1.4767 2.7023 3.4072 3.9229 6.9791 4.4124 2.48 0.33992 8.657-0.47733 11.314-1.4969 0.62035-0.23805 0.82014 0.86933 0.82014 4.5457v4.8604l-2.4109 0.73132c-3.0386 0.92173-15.366 1.4044-17.557 0.68743z"/>
   <path transform="matrix(.26458 0 0 .26458 4.0004 124.57)" d="m618.8 204.45v-34.074h9.4829l0.40182 2.0091c0.221 1.105 0.40182 3.5641 0.40182 5.4647s0.21698 3.4479 0.48218 3.4384c0.2652-0.01 1.2054-1.1986 2.0894-2.6423 3.5357-5.7746 13.304-10.468 20.964-10.073 4.3849 0.22634 4.5359 0.51268 3.8149 7.2336l-0.41749 3.8914-6.2337 8e-3c-5.1765 7e-3 -6.6844 0.24793-8.8917 1.4217-5.763 3.0646-9.2264 8.4333-10.483 16.25-0.36948 2.2984-0.67398 12.497-0.67665 22.663l-5e-3 18.484h-10.929z"/>
   <path transform="matrix(.26458 0 0 .26458 4.0004 124.57)" d="m671.52 204.45v-34.074h10.929v68.148h-10.929z"/>
   <path transform="matrix(.26458 0 0 .26458 4.0004 124.57)" d="m673.66 150.15c-8.0436-3.4988-4.5192-15.81 4.269-14.912 5.9209 0.60496 9.2802 7.754 5.7515 12.24-2.67 3.3944-6.1972 4.3348-10.021 2.6718z"/>
   <path transform="matrix(.26458 0 0 .26458 4.0004 124.57)" d="m718.45 238.92c-11.911-3.4562-18.001-12.174-16.066-23 2.3261-13.014 13.082-18.646 37.476-19.626l10.16-0.4079-0.40555-3.5963c-0.58699-5.2052-2.6898-9.0133-6.1626-11.16-7.384-4.5652-21.064-3.266-29.598 2.8108l-1.9603 1.3958-6.6229-6.6908 2.2502-1.9212c3.3369-2.8491 10.644-6.2426 15.751-7.3148 16.462-3.4563 30.534 2.0396 35.141 13.725 1.3574 3.4428 1.4548 4.8938 1.8827 28.061 0.24822 13.437 0.66005 25.082 0.91518 25.877 0.45483 1.4183 0.36343 1.4466-4.6856 1.4466-5.9692 0-5.93 0.0408-5.93-6.1602 0-2.2695-0.19456-4.1263-0.43235-4.1263s-2.0235 1.6297-3.9683 3.6216c-2.2696 2.3246-5.0504 4.3332-7.7648 5.6086-3.7244 1.7499-4.9957 2.0054-10.658 2.1415-3.854 0.0927-7.5879-0.18164-9.3222-0.68488zm17.822-9.0859c4.323-1.2838 9.2073-5.6814 11.039-9.939 0.76486-1.778 1.6632-5.3305 1.9962-7.8946 1.0283-7.9169 2.2593-7.122-10.445-6.7444-11.767 0.34973-15.755 1.1267-19.811 3.8599-3.6059 2.43-5.1018 5.245-5.1018 9.6006 0 5.8786 2.5276 9.4815 7.807 11.128 3.779 1.1789 10.526 1.1738 14.516-0.0109z" stroke-width=".64291"/>
  </g>
 </g>
</svg>
