<?xml version="1.0" encoding="UTF-8"?>
<!-- Created with Inkscape (http://www.inkscape.org/) -->
<svg width="165.63mm" height="127.7mm" version="1.1" viewBox="0 0 165.63 127.7" xmlns="http://www.w3.org/2000/svg">
 <defs>
  <clipPath id="clipPath23">
   <path d="M 0,841.89 H 595.276 V 0 H 0 Z"/>
  </clipPath>
 </defs>
 <g transform="translate(-31.833 -89.923)">
  <g transform="matrix(.35278 0 0 -.35278 5.9567 304.67)" clip-path="url(#clipPath23)">
   <g transform="translate(439.37 420.94)">
    <path d="m0 0c0-78.277-63.456-141.73-141.73-141.73-78.277 0-141.73 63.455-141.73 141.73s63.456 141.73 141.73 141.73c78.276 0 141.73-63.455 141.73-141.73" fill="#ef2c46"/>
    <path d="m0 0c0-78.277-63.456-141.73-141.73-141.73-78.277 0-141.73 63.455-141.73 141.73s63.456 141.73 141.73 141.73c78.276 0 141.73-63.455 141.73-141.73z" fill="none" stroke="#040606" stroke-miterlimit="10" stroke-width="10"/>
   </g>
   <g transform="translate(356.77 289.37)">
    <path d="m0 0s-38.742-10.205-96.569 37.417-64.536 116.88-65.386 126.24c-0.85 9.354-4.429 43.659 13.307 72.052 0 0-26.22-11.869-44.69-55.497-13.787-32.566-16.952-74.984 14.042-123.82 68.559-108.02 179.3-56.392 179.3-56.392" fill="#040606"/>
   </g>
   <g transform="translate(206.45 311.68)">
    <path d="m 0,0 -34.727,44.142 c 0,0 -103.338,-87.141 -87.724,-100.929 C -91.904,-83.76 0,0 0,0" fill="#040606"/>
   </g>
   <g transform="translate(398.07 513.57)">
    <path d="m0 0s15.861-14.441-41.208-75.669c-3.541-3.8 94.158 84.985 81.355 103.71-12.803 18.724-48.321-15.49-48.187-7.726" fill="#040606"/>
   </g>
   <g transform="translate(164.22 373.02)">
    <path d="m0 0s-111.91-108.08-80.22-118.13c57.52-18.244 200.14 49.422 295.43 122.3 92.889 71.051 143.48 143.96 153.27 173.53 36.824 111.19-134.9 15.844-162.71-6.222l18.953-12.79s30.719 18.233 42.275 12.79c9.66-4.55-36.85-79.952-100.22-136.61-127.83-114.3-208-138.93-239.94-150.27-17.219-6.113-3.969 33.449 80.66 98.196z" fill="#fff"/>
    <path d="m0 0s-111.91-108.08-80.22-118.13c57.52-18.244 200.14 49.422 295.43 122.3 92.889 71.051 143.48 143.96 153.27 173.53 36.824 111.19-134.9 15.844-162.71-6.222l18.953-12.79s30.719 18.233 42.275 12.79c9.66-4.55-36.85-79.952-100.22-136.61-127.83-114.3-208-138.93-239.94-150.27-17.219-6.113-3.969 33.449 80.66 98.196z" fill="none" stroke="#040606" stroke-miterlimit="10" stroke-width="10"/>
   </g>
   <g transform="translate(171.59 396.69)">
    <path d="m0 0c15.468 5.305 30.361 12.414 44.745 20.179 19.338 10.538 37.938 22.857 55.165 36.582 3.904 3.003 8.97 7.47 12.803 10.623 0 0 0.173-0.185 0.173-0.185-3.635-3.481-8.348-8.262-12.017-11.554-24.622-22.678-52.269-42.392-82.025-57.793-5.108-2.593-10.148-5.071-15.481-7.269l-3.363 9.417" fill="#040606"/>
   </g>
   <g transform="translate(322.51 283.18)">
    <path d="m0 0c-0.06 3e-3 3.993 6.677 4.052 6.671 10.966-1.196 17.771 0.934 29.964 7.29 16.174 8.431-12.544-12.969-12.544-12.969z" fill="#040606"/>
   </g>
   <g transform="translate(248.64 347.57)">
    <path d="m0 0s-6.236-5.669-18.142 8.315c-19.324 22.699-5.102-21.543-5.102-21.543l29.683 7.419z" fill="#040606"/>
   </g>
   <g transform="translate(434.43 565.09)">
    <path d="m0 0c15.155 7.615 77.549 35.072 82.184 6.839 2.823-23.374-37.418-69.651-52.964-87.589-6.06-6.896-12.256-13.668-18.543-20.352 11.956 13.921 23.794 27.941 34.971 42.459 10.816 14.418 36.117 47.32 34.042 65.131-3.463 24.288-65.669-1.045-79.69-6.488" fill="#040606"/>
   </g>
   <g transform="translate(118.02 283.37)">
    <path d="m0 0c6.793-16.512 52.376-1.553 65.149 3.168 22.468 8.078 44.15 18.237 65.501 28.907-21.164-11.119-42.639-21.718-64.997-30.274-14.658-5.488-58.45-21.498-68.091-3.624-0.199 0.502-0.348 0.829-0.45 1.434l2.888 0.389" fill="#040606"/>
   </g>
  </g>
 </g>
</svg>
