<?xml version="1.0" encoding="utf-8"?>
      <!-- Generator: hyper Content & Digital Asset Management Server http://www.hypercms.com  -->
      <svg version="1.1" baseProfile="basic" id="Ebene_1" xmlns="http://www.w3.org/2000/svg" xmlns:xlink="http://www.w3.org/1999/xlink" x="0px" y="0px" 
        viewBox="0 0 212.422 60" xml:space="preserve">
      <style type="text/css">
        .st0{fill-rule:evenodd;clip-rule:evenodd;stroke:#000000;stroke-width:0.1548;stroke-miterlimit:3.8637;}
        .st1{fill:#FBF315;}
	.st3{fill-rule:evenodd;clip-rule:evenodd;fill:#FBF315;stroke:#FBF315;stroke-width:0.1548;stroke-miterlimit:3.8637;}
      </style>
        <g><path fill="#000000" d="M66.172,30.13l4.266,5.562l-4.392,0l-3.33-5.22l-0.036,0l0,5.22l-3.528,0l0-13.572l5.274,0c2.682,0,4.716,1.278,4.716,4.176c0,1.872-1.044,3.492-2.97,3.834z M62.68,24.82l0,3.384l0.342,0c1.152,0,2.448-0.216,2.448-1.692s-1.296-1.692-2.448-1.692l-0.342,0z M76.144,28.996c-1.332,0-2.106,0.954-2.106,2.088c0,1.17,0.774,2.07,2.106,2.07s2.106-0.9,2.106-2.07c0-1.134-0.774-2.088-2.106-2.088z M81.418,26.458l0,9.234l-3.276,0l0-1.026l-0.036,0c-0.576,0.918-1.71,1.332-2.79,1.332c-2.736,0-4.662-2.286-4.662-4.932s1.89-4.914,4.626-4.914c1.062,0,2.178,0.396,2.862,1.206l0-0.9l3.276,0z M86.872,26.458l0,9.234l-3.276,0l0-9.234l3.276,0z M85.234,21.076c1.008,0,1.836,0.828,1.836,1.836s-0.828,1.836-1.836,1.836s-1.836-0.828-1.836-1.836s0.828-1.836,1.836-1.836z M92.632,29.158l0,6.534l-3.276,0l0-6.534l-1.152,0l0-2.7l1.152,0l0-1.17c0-1.278,0.036-2.214,0.936-3.24c0.81-0.954,1.98-1.476,3.222-1.476c0.504,0,0.954,0.09,1.404,0.324l0,2.826c-0.378-0.162-0.72-0.306-1.152-0.306c-0.846,0-1.134,0.504-1.134,1.548l0,1.494l2.286,0l0,2.7l-2.286,0z M99.616,29.158l0,6.534l-3.276,0l0-6.534l-1.152,0l0-2.7l1.152,0l0-1.17c0-1.278,0.036-2.214,0.936-3.24c0.81-0.954,1.98-1.476,3.222-1.476c0.504,0,0.954,0.09,1.404,0.324l0,2.826c-0.378-0.162-0.72-0.306-1.152-0.306c-0.846,0-1.134,0.504-1.134,1.548l0,1.494l2.286,0l0,2.7l-2.286,0z M105.646,29.734l3.798,0c-0.162-0.882-0.972-1.458-1.854-1.458c-0.954,0-1.746,0.504-1.944,1.458z M112.486,31.282l0,0.342l-6.894,0c0,1.332,0.702,2.052,2.052,2.052c0.702,0,1.206-0.234,1.566-0.846l3.15,0c-0.522,2.178-2.592,3.168-4.698,3.168c-3.06,0-5.346-1.728-5.346-4.914c0-3.078,2.106-4.932,5.112-4.932c3.204,0,5.058,1.98,5.058,5.13z M117.256,26.458l0,9.234l-3.276,0l0-9.234l3.276,0z M115.618,21.076c1.008,0,1.836,0.828,1.836,1.836s-0.828,1.836-1.836,1.836s-1.836-0.828-1.836-1.836s0.828-1.836,1.836-1.836z M126.616,26.746l-1.098,2.088c-0.504-0.27-1.206-0.45-1.764-0.45c-0.378,0-1.026,0.162-1.026,0.63c0,0.63,1.026,0.72,1.476,0.81c1.53,0.306,2.682,1.026,2.682,2.736c0,2.43-2.214,3.438-4.356,3.438c-1.314,0-2.61-0.378-3.726-1.062l1.188-2.286c0.666,0.468,1.782,0.936,2.592,0.936c0.414,0,1.026-0.198,1.026-0.702c0-0.72-1.026-0.756-2.052-1.026s-2.052-0.774-2.052-2.43c0-2.268,2.052-3.276,4.068-3.276c1.044,0,2.088,0.162,3.042,0.594z M131.296,29.734l3.798,0c-0.162-0.882-0.972-1.458-1.854-1.458c-0.954,0-1.746,0.504-1.944,1.458z M138.136,31.282l0,0.342l-6.894,0c0,1.332,0.702,2.052,2.052,2.052c0.702,0,1.206-0.234,1.566-0.846l3.15,0c-0.522,2.178-2.592,3.168-4.698,3.168c-3.06,0-5.346-1.728-5.346-4.914c0-3.078,2.106-4.932,5.112-4.932c3.204,0,5.058,1.98,5.058,5.13z M142.906,26.458l0,1.188l0.036,0c0.756-1.116,1.674-1.494,2.952-1.494c2.484,0,3.474,1.566,3.474,3.834l0,5.706l-3.276,0l0-4.5c0-0.882,0.144-2.43-1.476-2.43c-1.332,0-1.71,0.99-1.71,2.142l0,4.788l-3.276,0l0-9.234l3.276,0z M151.42,35.692l0-14.94l3.276,0l0,6.606c0.702-0.81,1.8-1.206,2.862-1.206c2.736,0,4.626,2.268,4.626,4.914c0,2.664-1.908,4.932-4.662,4.932c-1.08,0-2.196-0.414-2.79-1.332l-0.036,0l0,1.026l-3.276,0z M156.694,28.996c-1.332,0-2.106,0.954-2.106,2.088c0,1.17,0.774,2.07,2.106,2.07s2.106-0.9,2.106-2.07c0-1.134-0.774-2.088-2.106-2.088z M168.628,28.996c-1.332,0-2.106,0.954-2.106,2.088c0,1.17,0.774,2.07,2.106,2.07s2.106-0.9,2.106-2.07c0-1.134-0.774-2.088-2.106-2.088z M173.902,26.458l0,9.234l-3.276,0l0-1.026l-0.036,0c-0.576,0.918-1.71,1.332-2.79,1.332c-2.736,0-4.662-2.286-4.662-4.932s1.89-4.914,4.626-4.914c1.062,0,2.178,0.396,2.862,1.206l0-0.9l3.276,0z M179.356,26.458l0,1.188l0.036,0c0.756-1.116,1.674-1.494,2.952-1.494c2.484,0,3.474,1.566,3.474,3.834l0,5.706l-3.276,0l0-4.5c0-0.882,0.144-2.43-1.476-2.43c-1.332,0-1.71,0.99-1.71,2.142l0,4.788l-3.276,0l0-9.234l3.276,0z M191.254,20.752l0,9.036l3.402-3.33l4.482,0l-4.626,4.266l4.914,4.968l-4.59,0l-3.582-3.762l0,3.762l-3.276,0l0-14.94l3.276,0z"/><path fill="#000000" d="M66.172,48.022l4.266,5.562l-4.392,0l-3.33-5.22l-0.036,0l0,5.22l-3.528,0l0-13.572l5.274,0c2.682,0,4.716,1.278,4.716,4.176c0,1.872-1.044,3.492-2.97,3.834z M62.68,42.712l0,3.384l0.342,0c1.152,0,2.448-0.216,2.448-1.692s-1.296-1.692-2.448-1.692l-0.342,0z M73.966,47.626l3.798,0c-0.162-0.882-0.972-1.458-1.854-1.458c-0.954,0-1.746,0.504-1.944,1.458z M80.806,49.174l0,0.342l-6.894,0c0,1.332,0.702,2.052,2.052,2.052c0.702,0,1.206-0.234,1.566-0.846l3.15,0c-0.522,2.178-2.592,3.168-4.698,3.168c-3.06,0-5.346-1.728-5.346-4.914c0-3.078,2.106-4.932,5.112-4.932c3.204,0,5.058,1.98,5.058,5.13z M92.434,44.35l0,8.334c0,3.924-1.944,5.508-5.346,5.508c-2.124,0-4.968-1.098-5.256-3.528l3.672,0c0.09,0.324,0.324,0.558,0.612,0.702s0.63,0.216,0.936,0.216c1.764,0,2.106-1.152,2.106-2.646l0-0.432c-0.846,0.846-1.71,1.26-2.934,1.26c-2.7,0-4.554-2.052-4.554-4.716c0-2.7,1.908-5.004,4.734-5.004c1.08,0,2.07,0.36,2.718,1.278l0.036,0l0-0.972l3.276,0z M87.16,46.816c-1.332,0-2.106,0.954-2.106,2.088c0,1.17,0.774,2.07,2.106,2.07s2.106-0.9,2.106-2.07c0-1.134-0.774-2.088-2.106-2.088z M97.762,44.35l0,9.234l-3.276,0l0-9.234l3.276,0z M96.124,38.968c1.008,0,1.836,0.828,1.836,1.836s-0.828,1.836-1.836,1.836s-1.836-0.828-1.836-1.836s0.828-1.836,1.836-1.836z M104.8,44.044c2.97,0,5.562,1.782,5.562,4.932c0,3.132-2.592,4.914-5.562,4.914c-2.952,0-5.562-1.764-5.562-4.914s2.592-4.932,5.562-4.932z M104.8,46.888c-1.332,0-2.106,0.954-2.106,2.088c0,1.17,0.774,2.07,2.106,2.07s2.106-0.9,2.106-2.07c0-1.134-0.774-2.088-2.106-2.088z M115.114,44.35l0,1.188l0.036,0c0.756-1.116,1.674-1.494,2.952-1.494c2.484,0,3.474,1.566,3.474,3.834l0,5.706l-3.276,0l0-4.5c0-0.882,0.144-2.43-1.476-2.43c-1.332,0-1.71,0.99-1.71,2.142l0,4.788l-3.276,0l0-9.234l3.276,0z M137.776,43l-4.266,0l0,2.268l3.87,0l0,2.988l-3.87,0l0,5.328l-3.528,0l0-13.572l7.794,0l0,2.988z M142.312,47.626l3.798,0c-0.162-0.882-0.972-1.458-1.854-1.458c-0.954,0-1.746,0.504-1.944,1.458z M149.152,49.174l0,0.342l-6.894,0c0,1.332,0.702,2.052,2.052,2.052c0.702,0,1.206-0.234,1.566-0.846l3.15,0c-0.522,2.178-2.592,3.168-4.698,3.168c-3.06,0-5.346-1.728-5.346-4.914c0-3.078,2.106-4.932,5.112-4.932c3.204,0,5.058,1.98,5.058,5.13z M153.922,38.644l0,14.94l-3.276,0l0-14.94l3.276,0z M163.03,53.584l0-1.026l-0.036,0c-0.576,0.918-1.71,1.332-2.79,1.332c-2.736,0-4.662-2.286-4.662-4.932s1.89-4.914,4.626-4.914c1.062,0,2.178,0.396,2.862,1.206l0-6.606l3.276,0l0,14.94l-3.276,0z M161.032,46.888c-1.332,0-2.106,0.954-2.106,2.088c0,1.17,0.774,2.07,2.106,2.07s2.106-0.9,2.106-2.07c0-1.134-0.774-2.088-2.106-2.088z M168.25,53.584l0-14.94l3.276,0l0,6.606c0.702-0.81,1.8-1.206,2.862-1.206c2.736,0,4.626,2.268,4.626,4.914c0,2.664-1.908,4.932-4.662,4.932c-1.08,0-2.196-0.414-2.79-1.332l-0.036,0l0,1.026l-3.276,0z M173.524,46.888c-1.332,0-2.106,0.954-2.106,2.088c0,1.17,0.774,2.07,2.106,2.07s2.106-0.9,2.106-2.07c0-1.134-0.774-2.088-2.106-2.088z M185.458,46.888c-1.332,0-2.106,0.954-2.106,2.088c0,1.17,0.774,2.07,2.106,2.07s2.106-0.9,2.106-2.07c0-1.134-0.774-2.088-2.106-2.088z M190.732,44.35l0,9.234l-3.276,0l0-1.026l-0.036,0c-0.576,0.918-1.71,1.332-2.79,1.332c-2.736,0-4.662-2.286-4.662-4.932s1.89-4.914,4.626-4.914c1.062,0,2.178,0.396,2.862,1.206l0-0.9l3.276,0z M199.57,44.584l0,2.772c-0.486-0.36-1.062-0.648-1.692-0.648c-1.26,0-2.25,0.972-2.25,2.25c0,1.332,0.954,2.268,2.304,2.268c0.576,0,1.206-0.234,1.638-0.63l0,2.772c-0.72,0.36-1.512,0.522-2.304,0.522c-2.736,0-5.022-2.034-5.022-4.824c0-2.97,2.268-5.022,5.166-5.022c0.756,0,1.512,0.18,2.16,0.54z M201.604,38.644l3.276,0l0,6.876l0.036,0c0.756-1.008,1.674-1.476,2.952-1.476c2.34,0,3.474,1.548,3.474,3.888l0,5.652l-3.276,0l0-4.734c0-1.08-0.162-2.196-1.476-2.196c-1.296,0-1.71,1.116-1.71,2.196l0,4.734l-3.276,0l0-14.94z"/></g>
        <g>
              <polygon class="st3" points="0.1,4.99 50.1,4.99 50.11,55 0.1,55 0.1,4.99 "/>
              <polygon class="st1" points="1.55,6.44 48.66,6.44 48.66,53.55 1.55,53.55 1.55,6.44 "/>
              <path d="M25.09,35.7l15.04,15.03l5.88-5.88L30.97,29.83l2.93-2.92l-0.02-5.88l2.1-2.1L36,23.78l2.03,2.03l7.35-7.35l1.97,1.97
              c0-1.26-0.36-5.63-3.85-9.04c-3.92-3.82-7.84-1.59-9.19-0.24l-7.1,7.1l1.77,1.77l-3.92,3.89l-3.91-3.9l1.77-1.76l-7.1-7.1
              c-1.35-1.35-5.27-3.58-9.19,0.24c-3.5,3.41-3.79,7.76-3.79,9.03l1.93-1.93l7.34,7.33l2.04-2.05v-4.84l2.1,2.1l0,5.84l2.94,2.93
              L4.28,44.7l5.91,5.9L25.09,35.7L25.09,35.7z"/></g>
      </svg>